<?xml version="1.0" encoding="UTF-8" standalone="no"?>
<!DOCTYPE svg PUBLIC "-//W3C//DTD SVG 1.1//EN" "http://www.w3.org/Graphics/SVG/1.1/DTD/svg11.dtd">
<svg xmlns="http://www.w3.org/2000/svg" version="1.1" viewBox="0.00 0.00 820.00 600.00">
<g stroke-width="2.00" fill="none" stroke-linecap="butt">
<path stroke="#994b91" vector-effect="non-scaling-stroke" d="
  M 652.19 300.20
  A 241.98 241.98 0.0 0 0 410.21 58.22
  A 241.98 241.98 0.0 0 0 168.23 300.20
  A 241.98 241.98 0.0 0 0 410.21 542.18
  A 241.98 241.98 0.0 0 0 652.19 300.20"
/>
<path stroke="#9333ea" vector-effect="non-scaling-stroke" d="
  M 273.81 306.89
  C 276.03 308.52 281.55 305.26 283.49 304.76
  C 303.07 299.69 330.62 297.33 349.12 307.05
  A 0.75 0.75 0.0 0 1 349.47 307.99
  C 345.92 316.87 342.62 326.33 341.60 335.89
  Q 341.55 336.40 341.98 336.67
  Q 350.41 341.78 357.56 348.47
  C 363.00 353.56 367.39 360.45 371.86 366.79
  A 1.65 1.64 -21.9 0 0 373.48 367.47
  Q 387.43 365.21 400.48 359.74
  A 1.09 1.09 0.0 0 1 401.87 360.24
  C 412.07 379.72 408.82 412.71 401.21 432.66
  C 400.56 434.37 401.06 435.75 402.62 436.53
  Q 403.08 436.75 403.56 436.60
  Q 405.07 436.11 405.71 435.46
  C 432.19 408.04 454.03 371.99 453.20 332.55
  A 0.99 0.98 -17.8 0 1 453.63 331.72
  C 498.85 301.57 528.98 250.74 542.89 198.82
  C 545.93 187.50 548.45 174.57 547.95 162.82
  Q 547.92 162.33 547.44 162.21
  Q 545.21 161.69 543.76 161.75
  Q 525.34 162.55 505.29 168.32
  C 454.83 182.84 407.32 211.46 377.76 255.32
  A 0.98 0.95 17.1 0 1 376.94 255.74
  C 337.89 254.89 301.12 276.05 273.66 302.67
  Q 271.24 305.01 273.81 306.89"
/>
<path stroke="#9333ea" vector-effect="non-scaling-stroke" d="
  M 297.99 412.21
  Q 299.64 412.37 301.48 412.12
  C 321.41 409.50 354.21 397.49 359.48 374.55
  A 1.14 1.14 0.0 0 0 357.77 373.32
  Q 344.11 381.69 328.05 382.06
  A 1.00 1.00 0.0 0 1 327.02 381.02
  C 327.48 369.92 331.15 361.79 336.68 352.00
  A 1.30 1.30 0.0 0 0 335.17 350.11
  C 311.14 357.41 297.26 387.75 296.63 410.69
  A 1.49 1.48 3.3 0 0 297.99 412.21"
/>
<path stroke="#9333ea" vector-effect="non-scaling-stroke" d="
  M 493.00 243.37
  A 25.55 25.55 0.0 0 0 467.45 217.82
  A 25.55 25.55 0.0 0 0 441.90 243.37
  A 25.55 25.55 0.0 0 0 467.45 268.92
  A 25.55 25.55 0.0 0 0 493.00 243.37"
/>
</g>
<path fill="#a15999" d="
  M 672.97 300.23
  A 262.78 262.78 0.0 0 1 410.19 563.01
  A 262.78 262.78 0.0 0 1 147.41 300.23
  A 262.78 262.78 0.0 0 1 410.19 37.45
  A 262.78 262.78 0.0 0 1 672.97 300.23
  Z
  M 652.19 300.20
  A 241.98 241.98 0.0 0 0 410.21 58.22
  A 241.98 241.98 0.0 0 0 168.23 300.20
  A 241.98 241.98 0.0 0 0 410.21 542.18
  A 241.98 241.98 0.0 0 0 652.19 300.20
  Z"
/>
<path fill="#9333ea" d="
  M 652.19 300.20
  A 241.98 241.98 0.0 0 1 410.21 542.18
  A 241.98 241.98 0.0 0 1 168.23 300.20
  A 241.98 241.98 0.0 0 1 410.21 58.22
  A 241.98 241.98 0.0 0 1 652.19 300.20
  Z
  M 273.81 306.89
  C 276.03 308.52 281.55 305.26 283.49 304.76
  C 303.07 299.69 330.62 297.33 349.12 307.05
  A 0.75 0.75 0.0 0 1 349.47 307.99
  C 345.92 316.87 342.62 326.33 341.60 335.89
  Q 341.55 336.40 341.98 336.67
  Q 350.41 341.78 357.56 348.47
  C 363.00 353.56 367.39 360.45 371.86 366.79
  A 1.65 1.64 -21.9 0 0 373.48 367.47
  Q 387.43 365.21 400.48 359.74
  A 1.09 1.09 0.0 0 1 401.87 360.24
  C 412.07 379.72 408.82 412.71 401.21 432.66
  C 400.56 434.37 401.06 435.75 402.62 436.53
  Q 403.08 436.75 403.56 436.60
  Q 405.07 436.11 405.71 435.46
  C 432.19 408.04 454.03 371.99 453.20 332.55
  A 0.99 0.98 -17.8 0 1 453.63 331.72
  C 498.85 301.57 528.98 250.74 542.89 198.82
  C 545.93 187.50 548.45 174.57 547.95 162.82
  Q 547.92 162.33 547.44 162.21
  Q 545.21 161.69 543.76 161.75
  Q 525.34 162.55 505.29 168.32
  C 454.83 182.84 407.32 211.46 377.76 255.32
  A 0.98 0.95 17.1 0 1 376.94 255.74
  C 337.89 254.89 301.12 276.05 273.66 302.67
  Q 271.24 305.01 273.81 306.89
  Z
  M 297.99 412.21
  Q 299.64 412.37 301.48 412.12
  C 321.41 409.50 354.21 397.49 359.48 374.55
  A 1.14 1.14 0.0 0 0 357.77 373.32
  Q 344.11 381.69 328.05 382.06
  A 1.00 1.00 0.0 0 1 327.02 381.02
  C 327.48 369.92 331.15 361.79 336.68 352.00
  A 1.30 1.30 0.0 0 0 335.17 350.11
  C 311.14 357.41 297.26 387.75 296.63 410.69
  A 1.49 1.48 3.3 0 0 297.99 412.21
  Z"
/>
<path fill="#ffffff" d="
  M 273.81 306.89
  Q 271.24 305.01 273.66 302.67
  C 301.12 276.05 337.89 254.89 376.94 255.74
  A 0.98 0.95 17.1 0 0 377.76 255.32
  C 407.32 211.46 454.83 182.84 505.29 168.32
  Q 525.34 162.55 543.76 161.75
  Q 545.21 161.69 547.44 162.21
  Q 547.92 162.33 547.95 162.82
  C 548.45 174.57 545.93 187.50 542.89 198.82
  C 528.98 250.74 498.85 301.57 453.63 331.72
  A 0.99 0.98 -17.8 0 0 453.20 332.55
  C 454.03 371.99 432.19 408.04 405.71 435.46
  Q 405.07 436.11 403.56 436.60
  Q 403.08 436.75 402.62 436.53
  C 401.06 435.75 400.56 434.37 401.21 432.66
  C 408.82 412.71 412.07 379.72 401.87 360.24
  A 1.09 1.09 0.0 0 0 400.48 359.74
  Q 387.43 365.21 373.48 367.47
  A 1.65 1.64 -21.9 0 1 371.86 366.79
  C 367.39 360.45 363.00 353.56 357.56 348.47
  Q 350.41 341.78 341.98 336.67
  Q 341.55 336.40 341.60 335.89
  C 342.62 326.33 345.92 316.87 349.47 307.99
  A 0.75 0.75 0.0 0 0 349.12 307.05
  C 330.62 297.33 303.07 299.69 283.49 304.76
  C 281.55 305.26 276.03 308.52 273.81 306.89
  Z
  M 493.00 243.37
  A 25.55 25.55 0.0 0 0 467.45 217.82
  A 25.55 25.55 0.0 0 0 441.90 243.37
  A 25.55 25.55 0.0 0 0 467.45 268.92
  A 25.55 25.55 0.0 0 0 493.00 243.37
  Z"
/>
<circle fill="#9333ea" cx="467.45" cy="243.37" r="25.55"/>
<path fill="#ffffff" d="
  M 297.99 412.21
  A 1.49 1.48 3.3 0 1 296.63 410.69
  C 297.26 387.75 311.14 357.41 335.17 350.11
  A 1.30 1.30 0.0 0 1 336.68 352.00
  C 331.15 361.79 327.48 369.92 327.02 381.02
  A 1.00 1.00 0.0 0 0 328.05 382.06
  Q 344.11 381.69 357.77 373.32
  A 1.14 1.14 0.0 0 1 359.48 374.55
  C 354.21 397.49 321.41 409.50 301.48 412.12
  Q 299.64 412.37 297.99 412.21
  Z"
/>
</svg>
